<svg id="Layer_1" data-name="Layer 1" xmlns="http://www.w3.org/2000/svg" xmlns:xlink="http://www.w3.org/1999/xlink" viewBox="0 0 822.8 216.17"><defs><style>.cls-1,.cls-11,.cls-5{fill:none;}.cls-2{clip-path:url(#clip-path);}.cls-3{fill:#414042;}.cls-4{fill:#939598;}.cls-5{stroke:#414042;}.cls-11,.cls-5{stroke-miterlimit:10;stroke-width:3.496px;}.cls-6{fill:#46a266;}.cls-7{fill:#ffa8bd;}.cls-8{fill:#ffec3d;}.cls-9{fill:#7367d6;}.cls-10{fill:#298cc5;}.cls-11{stroke:#298cc5;}</style><clipPath id="clip-path"><rect class="cls-1" width="822.8" height="216.17"/></clipPath></defs><title>Untitled-1</title><g class="cls-2"><path class="cls-3" d="M805.525,130.127a8.91,8.91,0,0,1,4.015-.828v-2.021H794V129.3a9.049,9.049,0,0,1,4.066.828q1.216.726,1.218,2.953v24.759q0,2.228-1.218,2.953a9.021,9.021,0,0,1-4.066.828v2.02h27.142l1.658-10.1h-1.658q-.984,1.864-1.346,2.486t-1.14,1.839a8.38,8.38,0,0,1-1.217,1.606,12.923,12.923,0,0,1-1.243.932,4.313,4.313,0,0,1-1.658.7,11.231,11.231,0,0,1-1.994.156h-3a7.978,7.978,0,0,1-4.041-.751,3.02,3.02,0,0,1-1.191-2.772V133.08q0-2.228,1.217-2.953M771.21,149.344H757.794l6.578-16.212Zm3.936,10.049a1.668,1.668,0,0,1-1.062,1.658,11.535,11.535,0,0,1-3.755.569v2.02h13.882v-2.02a5.542,5.542,0,0,1-1.994-.544A2.676,2.676,0,0,1,781.1,159.7l-14.244-32.892h-5.75l1.606,3.419L750.439,159.7q-.622,1.554-3.16,1.916v2.02h11.6v-2.02a11.163,11.163,0,0,1-3.781-.595,1.714,1.714,0,0,1-1.088-1.684,6.243,6.243,0,0,1,.57-2.072l2.279-5.646h15.28l2.435,5.7a6.728,6.728,0,0,1,.569,2.072M715.994,133.6a5.507,5.507,0,0,1-.57-2.072,1.669,1.669,0,0,1,1.062-1.658,11.553,11.553,0,0,1,3.755-.569v-2.021h-13.83V129.3q2.487.363,3.16,1.916l14.866,32.892h1.554l13.726-32.892a2.631,2.631,0,0,1,1.14-1.373,5.812,5.812,0,0,1,2.02-.543v-2.021H731.119V129.3a11.121,11.121,0,0,1,3.807.595,1.72,1.72,0,0,1,1.062,1.684,6.287,6.287,0,0,1-.57,2.072l-9.168,23.1Zm-26.987,15.746H675.592l6.578-16.212Zm3.937,10.049a1.668,1.668,0,0,1-1.062,1.658,11.535,11.535,0,0,1-3.755.569v2.02h13.882v-2.02a5.554,5.554,0,0,1-2-.544A2.675,2.675,0,0,1,698.9,159.7l-14.245-32.892h-5.749l1.606,3.419L668.237,159.7q-.622,1.554-3.16,1.916v2.02h11.6v-2.02a11.175,11.175,0,0,1-3.782-.595,1.715,1.715,0,0,1-1.087-1.684,6.26,6.26,0,0,1,.569-2.072l2.28-5.646h15.28l2.434,5.7a6.709,6.709,0,0,1,.57,2.072m-68.4-29.266q1.216.726,1.217,2.953v24.759q0,2.228-1.217,2.953a9.028,9.028,0,0,1-4.066.828v2.02h16.678a18.146,18.146,0,0,0,13.209-5.1q5.231-5.1,5.231-14.115a18.33,18.33,0,0,0-1.139-6.5,16.3,16.3,0,0,0-3.393-5.439,15.409,15.409,0,0,0-6.034-3.807,24.85,24.85,0,0,0-8.65-1.4h-15.9V129.3a9.056,9.056,0,0,1,4.066.828m17.611.855a11.357,11.357,0,0,1,4.61,3.626,16.243,16.243,0,0,1,2.486,5.05,20.965,20.965,0,0,1,.8,5.905q0,7.563-3.419,11.629a11.711,11.711,0,0,1-9.479,4.066h-1.139a8.114,8.114,0,0,1-4.092-.751,3.2,3.2,0,0,1-1.191-2.927V129.661H635.4a16.279,16.279,0,0,1,6.76,1.321m-44.468,18.362H584.273l6.579-16.212Zm3.937,10.049a1.669,1.669,0,0,1-1.062,1.658,11.538,11.538,0,0,1-3.756.569v2.02H610.69v-2.02a5.548,5.548,0,0,1-1.994-.544,2.676,2.676,0,0,1-1.114-1.372l-14.244-32.892h-5.75l1.606,3.419L576.918,159.7q-.621,1.554-3.16,1.916v2.02h11.6v-2.02a11.163,11.163,0,0,1-3.781-.595,1.715,1.715,0,0,1-1.088-1.684,6.268,6.268,0,0,1,.57-2.072l2.279-5.646h15.28l2.435,5.7a6.738,6.738,0,0,1,.57,2.072m-59.7-2.538q-3.289-4.662-3.289-12.069,0-6.784,3.03-11.085t8.987-4.3q7.665,0,9.635,8.547h1.864v-7.925q-4.144-3.264-11.188-3.264a16.95,16.95,0,0,0-12.794,5.31q-5.077,5.31-5.076,14.166,0,7.875,4.713,12.9a16.121,16.121,0,0,0,12.328,5.024,26.215,26.215,0,0,0,12.069-2.848L563.4,152.5h-1.917a16.056,16.056,0,0,1-3.988,6.785,8.851,8.851,0,0,1-6.216,2.228,10.764,10.764,0,0,1-9.35-4.662m-46.643-17.663h-1.761a8.474,8.474,0,0,1-1.243,3.548,2.9,2.9,0,0,1-2.486,1.114H480.99V129.661h9.893a6.674,6.674,0,0,1,4.533,1.347,13.377,13.377,0,0,1,2.978,4.921h1.4v-8.651H470.734V129.3a9.052,9.052,0,0,1,4.066.828q1.216.726,1.217,2.953v24.759q0,2.228-1.217,2.953a9.025,9.025,0,0,1-4.066.828v2.02h29.318l1.553-9.323h-1.45q-1.243,2.072-1.787,2.875T497,159.056a4.421,4.421,0,0,1-1.528,1.373,11.258,11.258,0,0,1-1.683.57,9.463,9.463,0,0,1-2.383.259h-5.18a7.976,7.976,0,0,1-4.04-.751,3.02,3.02,0,0,1-1.191-2.772v-11.5H489.8a2.9,2.9,0,0,1,2.486,1.114,8.479,8.479,0,0,1,1.243,3.548h1.761Zm-67.362-9.065q1.217.726,1.217,2.953v24.759q0,2.228-1.217,2.953a9.028,9.028,0,0,1-4.066.828v2.02h16.678a18.146,18.146,0,0,0,13.209-5.1q5.231-5.1,5.231-14.115a18.33,18.33,0,0,0-1.139-6.5,16.3,16.3,0,0,0-3.393-5.439,15.409,15.409,0,0,0-6.034-3.807,24.85,24.85,0,0,0-8.65-1.4h-15.9V129.3a9.056,9.056,0,0,1,4.066.828m17.611.855a11.357,11.357,0,0,1,4.61,3.626,16.243,16.243,0,0,1,2.486,5.05,20.965,20.965,0,0,1,.8,5.905q0,7.563-3.419,11.629a11.711,11.711,0,0,1-9.479,4.066H439.4a8.114,8.114,0,0,1-4.092-.751,3.2,3.2,0,0,1-1.191-2.927V129.661h4.661a16.279,16.279,0,0,1,6.76,1.321m-63.892,18.362H368.228l6.578-16.212Zm3.937,10.049a1.668,1.668,0,0,1-1.062,1.658,11.535,11.535,0,0,1-3.755.569v2.02h13.882v-2.02a5.554,5.554,0,0,1-2-.544,2.675,2.675,0,0,1-1.113-1.372l-14.245-32.892h-5.749l1.606,3.419L360.872,159.7q-.621,1.554-3.159,1.916v2.02h11.6v-2.02a11.17,11.17,0,0,1-3.782-.595,1.715,1.715,0,0,1-1.087-1.684,6.26,6.26,0,0,1,.569-2.072l2.279-5.646h15.281l2.434,5.7a6.709,6.709,0,0,1,.57,2.072M314.98,129.3a9.052,9.052,0,0,1,4.066.828q1.217.726,1.217,2.953v24.759q0,2.228-1.217,2.953a9.025,9.025,0,0,1-4.066.828v2.02h15.488v-2.02a8.883,8.883,0,0,1-4.015-.828q-1.218-.726-1.217-2.953V147.79h2.745l8.754,11.292a18.572,18.572,0,0,0,4.714,4.558h7.407v-2.02a8.885,8.885,0,0,1-6.682-3.677l-8.7-10.826a12.143,12.143,0,0,0,7.018-2.927,8.423,8.423,0,0,0,2.979-6.707,9.207,9.207,0,0,0-3.289-7.459q-3.291-2.745-9.971-2.746H314.98Zm20.693,2.512a7.394,7.394,0,0,1,2.305,5.672q0,8.03-9.116,8.028h-3.626v-15.85h3.419q4.712,0,7.018,2.15m-63.5-1.684q1.216.726,1.217,2.953v24.759q0,2.228-1.217,2.953a9.028,9.028,0,0,1-4.066.828v2.02h16.678a18.146,18.146,0,0,0,13.209-5.1q5.231-5.1,5.231-14.115a18.33,18.33,0,0,0-1.139-6.5,16.3,16.3,0,0,0-3.393-5.439,15.409,15.409,0,0,0-6.034-3.807,24.85,24.85,0,0,0-8.65-1.4H268.1V129.3a9.056,9.056,0,0,1,4.066.828m17.611.855a11.35,11.35,0,0,1,4.61,3.626,16.243,16.243,0,0,1,2.486,5.05,20.965,20.965,0,0,1,.8,5.905q0,7.563-3.419,11.629a11.711,11.711,0,0,1-9.479,4.066h-1.139a8.114,8.114,0,0,1-4.092-.751,3.2,3.2,0,0,1-1.191-2.927V129.661h4.661a16.279,16.279,0,0,1,6.76,1.321m-67.13,29.81a9.025,9.025,0,0,1-4.066.828v2.02h13.571v-2.02a9.021,9.021,0,0,1-4.066-.828q-1.218-.726-1.217-2.953V134.893l23,28.747H252V133.08q0-2.228,1.217-2.953a9.045,9.045,0,0,1,4.066-.828v-2.021H243.707V129.3a9.052,9.052,0,0,1,4.066.828q1.217.726,1.217,2.953v21.5l-21.548-27.3h-8.857V129.3a5.17,5.17,0,0,1,2.668.647,14.942,14.942,0,0,1,2.615,2.616v25.277q0,2.228-1.217,2.953m-26.857-11.448H182.379l6.578-16.212Zm3.937,10.049a1.668,1.668,0,0,1-1.062,1.658,11.535,11.535,0,0,1-3.755.569v2.02H208.8v-2.02a5.554,5.554,0,0,1-2-.544,2.675,2.675,0,0,1-1.113-1.372l-14.245-32.892h-5.749l1.606,3.419L175.024,159.7q-.623,1.554-3.16,1.916v2.02h11.6v-2.02a11.175,11.175,0,0,1-3.782-.595,1.715,1.715,0,0,1-1.087-1.684,6.26,6.26,0,0,1,.569-2.072l2.28-5.646h15.28l2.434,5.7a6.709,6.709,0,0,1,.57,2.072M160.21,129.817a5.565,5.565,0,0,1,2.589-.518v-2.021H149.85V129.3a13.146,13.146,0,0,1,3.781.336,1.223,1.223,0,0,1,.881,1.217,5.622,5.622,0,0,1-1.4,2.9l-6.733,8.5-6.061-8.5a5.776,5.776,0,0,1-1.45-2.9,1.222,1.222,0,0,1,.88-1.217,13.15,13.15,0,0,1,3.782-.336v-2.021H128.25V129.3a5.653,5.653,0,0,1,4.766,2.589l9.893,13.416L132.032,159.03a7.35,7.35,0,0,1-2.176,2.072,5.56,5.56,0,0,1-2.59.518v2.02h12.95v-2.02a12.172,12.172,0,0,1-3.833-.362,1.3,1.3,0,0,1-.829-1.3,5.183,5.183,0,0,1,1.4-2.8l7.615-9.583,7.044,9.738a6.066,6.066,0,0,1,1.4,2.694,1.256,1.256,0,0,1-.8,1.269,12.5,12.5,0,0,1-3.756.336v2.02h15.125v-2.02a5.692,5.692,0,0,1-4.817-2.59l-10.67-14.5,9.945-12.639a7.334,7.334,0,0,1,2.176-2.071m-49.364,9.375h-1.761a8.46,8.46,0,0,1-1.243,3.548,2.9,2.9,0,0,1-2.486,1.114H96.55V129.661h9.894a6.673,6.673,0,0,1,4.532,1.347,13.377,13.377,0,0,1,2.978,4.921h1.4v-8.651H86.294V129.3a9.049,9.049,0,0,1,4.066.828q1.217.726,1.218,2.953v24.759q0,2.228-1.218,2.953a9.021,9.021,0,0,1-4.066.828v2.02h29.318l1.554-9.323h-1.451q-1.242,2.072-1.787,2.875t-1.372,1.864a4.439,4.439,0,0,1-1.528,1.373,11.274,11.274,0,0,1-1.684.57,9.46,9.46,0,0,1-2.382.259h-5.18a7.974,7.974,0,0,1-4.04-.751,3.018,3.018,0,0,1-1.192-2.772v-11.5h8.806a2.9,2.9,0,0,1,2.486,1.114,8.465,8.465,0,0,1,1.243,3.548h1.761Zm-52.6-9.065a8.908,8.908,0,0,1,4.014-.828v-2.021H46.721V129.3a9.052,9.052,0,0,1,4.066.828Q52,130.853,52,133.08v24.759q0,2.228-1.217,2.953a9.025,9.025,0,0,1-4.066.828v2.02H73.863l1.657-10.1H73.863q-.984,1.864-1.347,2.486t-1.139,1.839a8.373,8.373,0,0,1-1.218,1.606,12.8,12.8,0,0,1-1.243.932,4.309,4.309,0,0,1-1.657.7,11.231,11.231,0,0,1-1.994.156H62.26a7.976,7.976,0,0,1-4.04-.751,3.017,3.017,0,0,1-1.191-2.772V133.08q0-2.228,1.217-2.953M23.93,149.344H10.515l6.578-16.212Zm3.937,10.049a1.668,1.668,0,0,1-1.062,1.658,11.535,11.535,0,0,1-3.755.569v2.02H36.932v-2.02a5.554,5.554,0,0,1-2-.544,2.675,2.675,0,0,1-1.113-1.372L19.579,126.812H13.83l1.606,3.419L3.16,159.7Q2.538,161.258,0,161.62v2.02H11.6v-2.02a11.17,11.17,0,0,1-3.782-.595,1.715,1.715,0,0,1-1.087-1.684,6.26,6.26,0,0,1,.569-2.072l2.279-5.646H24.863l2.434,5.7a6.709,6.709,0,0,1,.57,2.072"/><path class="cls-3" d="M522.192,200.067a4.132,4.132,0,0,1,4.351,3.256l2.186-1.246a6.408,6.408,0,0,0-6.334-4.22c-3.588,0-6,2.133-6,4.754,0,2.824,2.058,4.605,6.18,5.317,3.333.535,4.478,1.451,4.478,3.054,0,1.806-1.705,2.976-4.275,2.976-2.875,0-4.808-1.653-5.519-4.579l-2.161,1.348a7.125,7.125,0,0,0,3.024,4.171,8.866,8.866,0,0,0,4.631,1.27c3.919,0,6.714-2.21,6.714-5.263,0-2.773-1.88-4.274-6.078-5.088-2.952-.585-4.657-1.5-4.657-3.257,0-1.527,1.451-2.493,3.461-2.493m-12.059-1.956H494.62v2.21h6.588v15.593h2.337V200.321h6.588Zm-35.1,8.9c0-4.274,2.824-7.022,6.461-7.022a5.6,5.6,0,0,1,5.749,4.758l2.137-.967a8.244,8.244,0,0,0-2.671-4.248,7.746,7.746,0,0,0-5.215-1.676,8.826,8.826,0,0,0-8.9,9.155c-.076,5.191,3.558,9.207,8.9,9.156a8.632,8.632,0,0,0,8.852-6.993l-2.06-.839a8,8,0,0,1-2.213,4.147,6.362,6.362,0,0,1-4.579,1.552c-3.765,0-6.461-2.595-6.461-7.023m-21.059-8.9v17.8h12.792V213.7H456.308V207.8h9.437V205.59h-9.437v-5.269h10.2v-2.21Zm-9.844,0v11.421c0,2.875-1.222,4.426-3.665,4.426a3.512,3.512,0,0,1-3.842-3.561,4.787,4.787,0,0,1,.585-2.365l-2.211-.84a6.325,6.325,0,0,0-.711,3.078c0,3.434,2.337,5.9,6.179,5.9,4.249,0,6-2.922,6-6.2V198.111Zm-25.261,15.847a6.949,6.949,0,1,1,6.743-6.945,6.581,6.581,0,0,1-6.743,6.945m0-16.1a9.156,9.156,0,1,0,9.207,9.156,9.042,9.042,0,0,0-9.207-9.156m-26.812,8.318v-5.854h5.6c2.137,0,3.41,1.069,3.41,2.927,0,1.832-1.273,2.927-3.41,2.927Zm11.624,9.739v-.356c-.711-.789-.813-1.654-.889-3.689-.076-2.365-1.016-3.662-2.822-4.348,2.314-.788,3.559-2.364,3.559-4.579,0-2.672-2.134-4.831-5.671-4.831h-8.138v17.8h2.337v-7.529h4.656c2.265,0,3.461.915,3.486,3.459a9.138,9.138,0,0,0,.611,4.07ZM371.5,206.378v-6.057h5.319c2.112,0,3.511,1.094,3.511,3.029s-1.4,3.028-3.511,3.028Zm0,2.21h5.522c3.588,0,5.773-2.413,5.773-5.238,0-2.9-2.084-5.239-5.773-5.239h-7.859v17.8H371.5Zm-18.925-10.477H337.062v2.21h6.588v15.593h2.337V200.321h6.588Zm-32.687,8.064v-5.854h5.6c2.138,0,3.41,1.069,3.41,2.927,0,1.832-1.272,2.927-3.41,2.927Zm11.625,9.739v-.356c-.711-.789-.813-1.654-.889-3.689-.076-2.365-1.016-3.662-2.822-4.348,2.314-.788,3.559-2.364,3.559-4.579,0-2.672-2.134-4.831-5.671-4.831h-8.139v17.8h2.337v-7.529h4.657c2.265,0,3.461.915,3.486,3.459a9.138,9.138,0,0,0,.611,4.07ZM298.6,209.253l3.815-9.288,3.789,9.288Zm-5.265,6.661H295.9l1.856-4.528h9.309l1.831,4.528h2.594l-7.452-17.8h-3.255Z"/></g><polygon class="cls-4" points="331.131 72.35 361.548 46.461 331.131 20.572 331.131 72.35"/><polygon class="cls-5" points="331.131 72.35 361.548 46.461 331.131 20.572 331.131 72.35"/><polygon class="cls-6" points="363.714 77.03 399.553 46.461 363.714 15.893 363.714 77.03"/><polygon class="cls-5" points="363.636 77.199 399.674 46.461 363.636 15.722 363.636 77.199"/><polygon class="cls-7" points="491.669 72.35 461.252 46.461 491.669 20.572 491.669 72.35"/><polygon class="cls-5" points="491.669 72.35 461.252 46.461 491.669 20.572 491.669 72.35"/><polygon class="cls-8" points="459.086 77.03 423.247 46.461 459.086 15.893 459.086 77.03"/><polygon class="cls-5" points="459.164 77.199 423.126 46.461 459.164 15.722 459.164 77.199"/><rect class="cls-9" x="398.848" y="1.771" width="12.435" height="89.381"/><g class="cls-2"><rect class="cls-5" x="398.848" y="1.771" width="12.435" height="89.381"/></g><rect class="cls-10" x="411.795" y="1.748" width="10.707" height="89.427"/><g class="cls-2"><rect class="cls-11" x="411.795" y="1.748" width="10.707" height="89.427"/><rect class="cls-5" x="411.09" y="1.771" width="12.435" height="89.381"/></g></svg>